<svg width="82" height="24" viewBox="0 0 82 24" xmlns="http://www.w3.org/2000/svg"><g id="svgGroup" stroke-linecap="round" fill-rule="evenodd" font-size="9pt" stroke="#000" stroke-width="0.25mm" fill="black" style="stroke:#000;stroke-width:0.25mm;fill:black"><path d="M 16.625 0.137 L 16.625 10.09 L 16.256 10.09 L 9.83 0.766 L 9.83 10.09 L 9.454 10.09 L 9.454 0.137 L 9.83 0.137 L 16.256 9.441 L 16.256 0.137 L 16.625 0.137 Z M 34.747 2.94 L 34.378 2.94 A 2.469 2.469 0 0 0 34.166 1.908 A 2.413 2.413 0 0 0 33.558 1.097 A 2.834 2.834 0 0 0 32.169 0.434 A 3.998 3.998 0 0 0 31.432 0.369 Q 30.369 0.369 29.635 0.753 A 2.672 2.672 0 0 0 29.309 0.954 A 2.218 2.218 0 0 0 28.848 1.391 A 1.636 1.636 0 0 0 28.499 2.42 Q 28.499 3.301 29.18 3.844 A 2.228 2.228 0 0 0 29.203 3.862 Q 29.816 4.339 31.125 4.719 A 14.377 14.377 0 0 0 31.527 4.83 Q 33.148 5.25 33.899 5.804 A 2.377 2.377 0 0 1 34.562 6.526 Q 34.838 7.003 34.855 7.609 A 2.863 2.863 0 0 1 34.857 7.691 A 2.189 2.189 0 0 1 34.433 9.02 A 2.49 2.49 0 0 1 33.703 9.678 A 3.294 3.294 0 0 1 33.23 9.912 A 4.305 4.305 0 0 1 32.124 10.19 A 5.434 5.434 0 0 1 31.48 10.227 A 5.589 5.589 0 0 1 30.394 10.125 A 4.477 4.477 0 0 1 29.538 9.868 A 3.266 3.266 0 0 1 28.866 9.496 A 2.49 2.49 0 0 1 28.243 8.846 A 2.65 2.65 0 0 1 27.836 7.717 A 3.413 3.413 0 0 1 27.809 7.28 L 28.178 7.28 A 2.608 2.608 0 0 0 28.312 8.137 A 2.154 2.154 0 0 0 29.094 9.181 Q 29.945 9.81 31.274 9.854 A 6.134 6.134 0 0 0 31.48 9.858 Q 32.785 9.858 33.633 9.259 A 2.187 2.187 0 0 0 34.141 8.772 A 1.755 1.755 0 0 0 34.481 7.704 A 2.26 2.26 0 0 0 34.426 7.194 A 1.68 1.68 0 0 0 34.183 6.628 A 1.964 1.964 0 0 0 33.836 6.243 Q 33.591 6.031 33.247 5.848 A 5.071 5.071 0 0 0 32.81 5.646 Q 32.361 5.461 31.724 5.271 A 20.335 20.335 0 0 0 31.316 5.154 Q 30.024 4.799 29.378 4.437 A 3.356 3.356 0 0 1 28.926 4.136 Q 28.692 3.95 28.53 3.739 A 1.874 1.874 0 0 1 28.431 3.596 A 1.919 1.919 0 0 1 28.173 2.922 A 2.642 2.642 0 0 1 28.13 2.434 A 2.048 2.048 0 0 1 28.819 0.86 A 2.717 2.717 0 0 1 29.046 0.673 Q 29.897 0.048 31.226 0.004 A 6.166 6.166 0 0 1 31.432 0 A 4.221 4.221 0 0 1 32.44 0.116 A 3.528 3.528 0 0 1 33.151 0.373 Q 33.913 0.745 34.33 1.419 A 2.803 2.803 0 0 1 34.745 2.821 A 3.374 3.374 0 0 1 34.747 2.94 Z M 6.781 7.041 L 7.15 7.041 Q 7.018 8.456 6.233 9.266 A 2.876 2.876 0 0 1 6.091 9.403 A 3.08 3.08 0 0 1 4.772 10.091 Q 4.241 10.227 3.603 10.227 A 3.555 3.555 0 0 1 2.459 10.047 A 3.182 3.182 0 0 1 1.726 9.69 A 3.402 3.402 0 0 1 0.642 8.524 A 4.251 4.251 0 0 1 0.458 8.166 A 5.007 5.007 0 0 1 0.062 6.784 A 6.468 6.468 0 0 1 0 5.906 L 0 4.368 A 6.228 6.228 0 0 1 0.122 3.111 A 4.964 4.964 0 0 1 0.444 2.095 A 3.829 3.829 0 0 1 1.034 1.148 A 3.283 3.283 0 0 1 1.712 0.547 A 3.292 3.292 0 0 1 3.405 0.005 A 4.031 4.031 0 0 1 3.603 0 A 4.796 4.796 0 0 1 4.641 0.106 Q 5.493 0.295 6.084 0.82 A 3.03 3.03 0 0 1 6.94 2.143 Q 7.098 2.61 7.15 3.172 L 6.781 3.172 A 4.345 4.345 0 0 0 6.597 2.305 Q 6.419 1.764 6.098 1.37 A 2.502 2.502 0 0 0 5.824 1.084 Q 5.024 0.369 3.603 0.369 Q 2.153 0.369 1.261 1.463 A 3.76 3.76 0 0 0 0.552 2.882 Q 0.369 3.562 0.369 4.396 L 0.369 5.859 A 5.934 5.934 0 0 0 0.465 6.951 A 4.543 4.543 0 0 0 0.766 7.94 A 3.486 3.486 0 0 0 1.312 8.822 A 3.027 3.027 0 0 0 1.904 9.352 A 2.921 2.921 0 0 0 3.499 9.856 A 3.556 3.556 0 0 0 3.603 9.858 A 4.671 4.671 0 0 0 4.492 9.778 Q 5.01 9.678 5.414 9.45 A 2.475 2.475 0 0 0 5.835 9.153 A 2.567 2.567 0 0 0 6.523 8.156 Q 6.717 7.668 6.781 7.041 Z M 25.792 10.09 L 23.147 5.831 L 19.694 5.831 L 19.694 10.09 L 19.325 10.09 L 19.325 0.137 L 22.497 0.137 Q 23.784 0.137 24.619 0.707 A 2.798 2.798 0 0 1 24.879 0.909 Q 25.765 1.682 25.765 3.008 A 2.704 2.704 0 0 1 25.132 4.789 A 2.676 2.676 0 0 1 23.523 5.735 L 26.182 9.994 L 26.182 10.09 L 25.792 10.09 Z M 19.694 0.506 L 19.694 5.462 L 22.832 5.462 A 3.08 3.08 0 0 0 23.662 5.356 A 2.328 2.328 0 0 0 24.688 4.765 A 2.344 2.344 0 0 0 25.394 3.106 A 3.099 3.099 0 0 0 25.396 3.008 A 2.78 2.78 0 0 0 25.286 2.206 A 2.14 2.14 0 0 0 24.613 1.176 Q 23.83 0.506 22.47 0.506 L 19.694 0.506 Z" vector-effect="non-scaling-stroke"/></g></svg>